<svg xmlns="http://www.w3.org/2000/svg" xmlns:xlink="http://www.w3.org/1999/xlink" viewBox="0 0 30 30" fill="#F97316">
  <path d="M3 5C1.895 5 1 5.895 1 7L1 21 A 1.0001 1.0001 0 1 0 1 23L3 23L4.0507812 23C4.2981765 24.685411 5.7500665 26 7.5 26C9.2499335 26 10.701823 24.685411 10.949219 23L18 23L20.050781 23C20.298177 24.685411 21.750067 26 23.5 26C25.249933 26 26.701823 24.685411 26.949219 23L29 23 A 1.0001 1.0001 0 1 0 29 21L29 16L23 16L23 12C23 11.448 23.448 11 24 11L26.857422 11L26.519531 10.212891C26.204531 9.4778906 25.481641 9 24.681641 9L18 9L18 7C18 5.895 17.105 5 16 5L3 5 z M 7.5 21C8.3402718 21 9 21.659728 9 22.5C9 23.340272 8.3402718 24 7.5 24C6.6597282 24 6 23.340272 6 22.5C6 21.659728 6.6597282 21 7.5 21 z M 23.5 21C24.340272 21 25 21.659728 25 22.5C25 23.340272 24.340272 24 23.5 24C22.659728 24 22 23.340272 22 22.5C22 21.659728 22.659728 21 23.5 21 z" fill="#F97316" />
</svg>